<svg width="100" height="110" viewBox="0 0 100 110" fill="none" xmlns="http://www.w3.org/2000/svg">
<path d="M99.3668 95.947C99.4073 103.45 93.3555 109.559 85.8559 109.6C85.2984 109.604 84.7364 109.573 84.1834 109.505C77.2233 108.476 72.1247 102.42 72.2956 95.3896V14.553C72.1292 7.5132 77.2413 1.45787 84.2058 0.437416C91.6559 -0.434695 98.4047 4.89687 99.2769 12.3458C99.3399 12.8942 99.3713 13.4427 99.3668 13.9956V95.947Z" fill="#F9AB00"/>
<path d="M14.1786 82.5499C21.6556 82.5499 27.7165 88.6098 27.7165 96.0856C27.7165 103.562 21.6556 109.621 14.1786 109.621C6.70146 109.621 0.640656 103.562 0.640656 96.0856C0.640656 88.6098 6.70146 82.5499 14.1786 82.5499ZM49.797 41.5293C42.284 41.9429 36.457 48.2409 36.6323 55.7618V92.1162C36.6323 101.984 40.9756 107.972 47.3376 109.248C54.6798 110.736 61.8332 105.994 63.3214 98.6525C63.5058 97.7534 63.5957 96.8409 63.5912 95.9238V55.1324C63.6047 47.6296 57.5349 41.5383 50.0308 41.5248C49.9544 41.5248 49.8735 41.5248 49.797 41.5293Z" fill="#E37400"/>
</svg>
