<svg viewBox="0 0 36 95" fill="none" xmlns="http://www.w3.org/2000/svg"><path d="M21.6103 93.2803C29.57 87.4431 40.2024 79.354 29.9447 70.2359C26.6619 67.3178 12.2446 62.4291 13.632 56.4164C15.2812 49.2693 25.7347 47.0686 14.843 42.2763C13.3258 41.6088 7.97714 39.7848 7.54142 37.8242C7.07741 35.7362 11.8416 32.4304 12.9197 30.7363C14.425 28.3708 11.4467 25.2269 9.78535 23.8978C5.96129 20.8385 6.29902 18.6473 7.86202 14.5661C9.59783 10.0336 7.73815 7.99109 5.725 4.16581C5.02107 2.82823 4.49521 1.56782 3.51672 3.5247C3.13372 4.29064 1.19541 9.36006 2.37697 7.51383C3.35767 5.98145 3.08216 3.29524 4.15779 2.10003C4.74564 1.44682 8.10979 4.19369 9.2867 4.66447C10.2085 5.0332 12.2825 5.38475 12.6347 6.08915" stroke="white" stroke-width="2.00347" stroke-linecap="round"></path></svg>