  <svg
              viewBox="0 0 107 98"
              fill="none"
              xmlns="http://www.w3.org/2000/svg"
            >
              <path
                d="M1.09434 96.0865C9.76782 77.579 23.8729 59.1247 41.9654 48.8769C46.8853 46.0903 70.7831 32.4226 74.3596 42.308C76.0726 47.0426 70.4619 48.1211 67.1268 47.6519C60.5618 46.7284 55.4416 45.4104 49.7367 41.6716C40.931 35.9005 29.776 25.4804 35.5159 14.0911C37.9932 9.17572 45.9247 8.59222 50.3725 9.92808C54.7333 11.2378 58.2059 13.687 61.9989 16.0999C65.0817 18.061 64.4184 17.9888 64.9291 14.358C66.211 5.24483 77.1528 -4.78995 83.6991 6.35497C87.372 12.608 87.2709 19.2273 87.4464 26.1344C87.5123 28.7289 87.7719 33.1866 86.7859 35.6153C85.7123 38.2596 83.589 35.4305 83.6002 33.5105C83.6282 28.7369 85.0666 26.1622 89.5913 24.5251C93.6833 23.0446 100.264 24.2624 102.207 28.8241C103.285 31.3549 103.709 30.4867 103.881 28.2182C104.015 26.4583 103.259 21.2637 103.859 22.9233C104.071 23.5081 105.79 28.3602 105.341 28.9022C103.742 30.8316 100.992 31.8516 99.0771 33.3652"
                stroke="#F7F7F7"
                stroke-width="2.00347"
                stroke-linecap="round"
              ></path>
            </svg>