<?xml version="1.0" encoding="utf-8"?>
<!-- Uploaded to: SVG Repo, www.svgrepo.com, Generator: SVG Repo Mixer Tools -->
<svg width="800px" height="800px" viewBox="0 0 1024 1024" class="icon"  version="1.1" xmlns="http://www.w3.org/2000/svg"><path d="M960 608a32 32 0 0 0-32 32v288h-288a32 32 0 0 0 0 64h320a32 32 0 0 0 32-32V640a32 32 0 0 0-32-32zM512 928h-128a32 32 0 0 0 0 64h128a32 32 0 0 0 0-64zM278.72 937.28a32 32 0 0 0-34.88-6.72 29.76 29.76 0 0 0-10.56 6.72 32 32 0 0 0-6.72 10.56A32 32 0 0 0 224 960a32 32 0 0 0 54.72 22.72 37.12 37.12 0 0 0 6.72-10.56 30.08 30.08 0 0 0 0-24.32 29.76 29.76 0 0 0-6.72-10.56zM128 928H96v-288a32 32 0 0 0-64 0v320a32 32 0 0 0 32 32h64a32 32 0 0 0 0-64zM64 96h416v570.56l-171.2-146.88a32 32 0 0 0-41.6 48.64l224 192a32 32 0 0 0 4.8 2.88l2.56 1.6a30.08 30.08 0 0 0 23.36 0l2.24-1.6a32 32 0 0 0 4.8-2.88l224-192a32 32 0 0 0-41.6-48.64L544 666.56V64a32 32 0 0 0-32-32H64a32 32 0 0 0 0 64z" fill="#231815" /></svg>