<svg width="100%" max-width="100%" height="284" viewBox="0 0 486 284" fill="none" xmlns="http://www.w3.org/2000/svg"><g clip-path="url(#clip0_10_8347)"><rect width="360" height="242" transform="translate(40 21.5)" fill="#CB7A2B"></rect><path d="M248.94 109.89V109.391L250.454 109.017V97.1826L248.94 96.8265V96.3278H254.702C255.622 96.3278 256.435 96.4762 257.142 96.773C257.854 97.0639 258.409 97.4973 258.807 98.0731C259.21 98.643 259.412 99.3465 259.412 100.184C259.412 101.05 259.169 101.769 258.682 102.338C258.201 102.902 257.524 103.306 256.652 103.55L260.258 109.035L262.101 109.391V109.89H257.863L254.078 103.834H252.796V109.017L254.809 109.391V109.89H248.94ZM252.796 103.033H253.571C254.265 103.033 254.817 102.947 255.227 102.775C255.637 102.603 255.969 102.371 256.224 102.08C256.486 101.789 256.67 101.466 256.776 101.11C256.889 100.747 256.946 100.379 256.946 100.005C256.946 99.3227 256.803 98.7588 256.518 98.3135C256.233 97.8683 255.844 97.5477 255.352 97.3518C255.15 97.2687 254.927 97.2123 254.684 97.1826C254.446 97.147 254.147 97.1292 253.784 97.1292H252.796V103.033ZM266.523 110.077C265.627 110.077 264.84 109.881 264.163 109.489C263.487 109.091 262.961 108.539 262.587 107.833C262.219 107.12 262.035 106.298 262.035 105.366C262.035 104.375 262.243 103.505 262.659 102.757C263.074 102.009 263.653 101.424 264.395 101.003C265.143 100.581 266.007 100.371 266.986 100.371C268.221 100.371 269.162 100.721 269.809 101.421C270.462 102.116 270.803 103.137 270.833 104.484L270.708 104.6H263.54V103.986L268.5 103.808C268.548 103.665 268.571 103.434 268.571 103.113C268.571 101.748 267.978 101.065 266.79 101.065C265.989 101.065 265.372 101.389 264.938 102.036C264.511 102.683 264.297 103.6 264.297 104.787C264.297 107.304 265.271 108.563 267.218 108.563C268.512 108.563 269.512 108.1 270.219 107.174L270.602 107.45C270.293 108.281 269.779 108.928 269.061 109.391C268.349 109.848 267.503 110.077 266.523 110.077ZM274.462 110.077C273.797 110.077 273.263 109.884 272.859 109.498C272.461 109.106 272.263 108.59 272.263 107.948C272.263 107.402 272.429 106.933 272.761 106.541C273.1 106.144 273.634 105.802 274.364 105.517C275.094 105.227 276.05 104.974 277.231 104.761V103.22C277.231 102.454 277.136 101.926 276.946 101.635C276.762 101.338 276.433 101.19 275.958 101.19C275.483 101.19 275.106 101.306 274.827 101.537C274.548 101.763 274.409 102.071 274.409 102.463C274.409 102.582 274.418 102.701 274.435 102.819C274.453 102.938 274.462 103.051 274.462 103.158C274.462 103.472 274.361 103.734 274.159 103.941C273.963 104.143 273.717 104.244 273.42 104.244C273.135 104.244 272.904 104.152 272.726 103.968C272.548 103.784 272.458 103.544 272.458 103.247C272.458 102.867 272.61 102.481 272.913 102.089C273.221 101.691 273.634 101.347 274.15 101.056C274.946 100.599 275.848 100.371 276.857 100.371C277.415 100.371 277.878 100.451 278.247 100.611C278.615 100.765 278.885 100.988 279.057 101.279C279.164 101.487 279.238 101.754 279.279 102.08C279.327 102.401 279.351 102.911 279.351 103.612V107.476C279.351 108.035 279.398 108.423 279.493 108.643C279.588 108.857 279.76 108.964 280.01 108.964C280.295 108.964 280.571 108.806 280.838 108.492L281.185 108.883C280.865 109.299 280.535 109.602 280.197 109.792C279.858 109.982 279.472 110.077 279.039 110.077C278.529 110.077 278.134 109.952 277.855 109.703C277.576 109.447 277.392 109.064 277.303 108.554H277.249C276.875 109.035 276.448 109.409 275.967 109.676C275.492 109.943 274.99 110.077 274.462 110.077ZM275.593 108.768C275.919 108.768 276.222 108.69 276.501 108.536C276.786 108.376 277.03 108.153 277.231 107.868V105.402C276.507 105.544 275.94 105.701 275.531 105.874C275.121 106.04 274.83 106.248 274.658 106.497C274.492 106.74 274.409 107.052 274.409 107.432C274.409 107.865 274.507 108.198 274.702 108.429C274.904 108.655 275.201 108.768 275.593 108.768ZM285.743 110.077C285.025 110.077 284.378 109.872 283.802 109.462C283.232 109.053 282.778 108.495 282.439 107.788C282.107 107.076 281.941 106.271 281.941 105.375C281.941 104.39 282.139 103.523 282.537 102.775C282.935 102.021 283.487 101.433 284.193 101.012C284.906 100.584 285.725 100.371 286.651 100.371C287.316 100.371 287.969 100.486 288.61 100.718V96.9244L287.239 96.4257V96.123L290.462 95.2592H290.721V108.376L292.003 108.705V108.964L288.949 110.077H288.744V108.732L288.664 108.705C288.296 109.151 287.862 109.492 287.364 109.729C286.865 109.961 286.325 110.077 285.743 110.077ZM286.642 108.866C287.052 108.866 287.429 108.777 287.773 108.598C288.123 108.42 288.402 108.18 288.61 107.877V103.122C288.61 102.481 288.45 101.982 288.129 101.626C287.809 101.264 287.358 101.083 286.776 101.083C286.028 101.083 285.425 101.451 284.968 102.187C284.511 102.917 284.283 103.885 284.283 105.09C284.283 106.254 284.49 107.174 284.906 107.85C285.327 108.527 285.906 108.866 286.642 108.866ZM294.48 114.476C293.982 114.476 293.569 114.357 293.243 114.119C292.922 113.888 292.762 113.567 292.762 113.158C292.762 112.849 292.86 112.603 293.056 112.419C293.258 112.24 293.51 112.151 293.813 112.151C294.062 112.151 294.264 112.217 294.418 112.347C294.578 112.484 294.694 112.701 294.765 112.997C294.819 113.241 294.875 113.398 294.935 113.469C294.994 113.547 295.092 113.585 295.228 113.585C295.424 113.585 295.611 113.475 295.789 113.256C295.968 113.042 296.134 112.707 296.288 112.249L297.001 110.175L293.43 101.724C293.323 101.498 293.171 101.335 292.976 101.234C292.786 101.127 292.498 101.053 292.112 101.012V100.549H297.063V101.012C296.665 101.041 296.371 101.083 296.181 101.136C295.997 101.184 295.893 101.267 295.87 101.386C295.846 101.498 295.876 101.668 295.959 101.893L298.069 107.156H298.158L299.859 102.401C300.043 101.938 300.04 101.599 299.85 101.386C299.66 101.172 299.25 101.047 298.621 101.012V100.549H302.7V101.012C302.26 101.089 301.919 101.178 301.675 101.279C301.432 101.374 301.245 101.51 301.114 101.688C300.984 101.861 300.859 102.104 300.74 102.419L297.045 112.374C296.909 112.754 296.757 113.069 296.591 113.318C296.431 113.573 296.261 113.778 296.083 113.932C295.686 114.295 295.151 114.476 294.48 114.476ZM307.226 109.89V109.436L308.624 109.133V100.798C308.624 100.133 308.63 99.5929 308.641 99.1773C308.659 98.7617 308.686 98.4234 308.722 98.1622C308.763 97.895 308.823 97.6605 308.9 97.4587C309.066 97.0135 309.336 96.6276 309.71 96.3011C310.084 95.9686 310.523 95.7134 311.028 95.5353C311.533 95.3512 312.064 95.2592 312.622 95.2592C313.382 95.2592 314.008 95.4076 314.501 95.7045C314.993 96.0013 315.24 96.3872 315.24 96.8621C315.24 97.153 315.145 97.3904 314.955 97.5745C314.771 97.7585 314.527 97.8505 314.225 97.8505C313.928 97.8505 313.699 97.7555 313.539 97.5655C313.385 97.3756 313.275 97.1441 313.21 96.871C313.132 96.5504 313.029 96.3189 312.898 96.1764C312.773 96.0339 312.571 95.9627 312.292 95.9627C312.031 95.9627 311.788 96.028 311.562 96.1586C311.343 96.2833 311.17 96.497 311.046 96.7997C310.939 97.0669 310.862 97.426 310.814 97.8772C310.767 98.3224 310.743 98.8894 310.743 99.578V109.133L312.738 109.436V109.89H307.226ZM306.967 101.225L307.199 100.549H313.058L312.836 101.225H306.967ZM318.645 110.077C317.678 110.077 316.832 109.863 316.107 109.436C315.389 109.002 314.831 108.42 314.433 107.69C314.036 106.954 313.837 106.132 313.837 105.224C313.837 104.309 314.036 103.487 314.433 102.757C314.831 102.027 315.389 101.448 316.107 101.021C316.832 100.587 317.678 100.371 318.645 100.371C319.613 100.371 320.453 100.587 321.165 101.021C321.884 101.448 322.442 102.027 322.839 102.757C323.243 103.487 323.445 104.309 323.445 105.224C323.445 106.132 323.243 106.954 322.839 107.69C322.442 108.42 321.884 109.002 321.165 109.436C320.453 109.863 319.613 110.077 318.645 110.077ZM318.627 109.231C319.061 109.231 319.432 109.124 319.74 108.91C320.055 108.696 320.313 108.403 320.515 108.029C320.717 107.655 320.865 107.227 320.96 106.746C321.061 106.265 321.112 105.755 321.112 105.215C321.112 104.68 321.064 104.173 320.969 103.692C320.874 103.211 320.726 102.787 320.524 102.419C320.328 102.045 320.073 101.751 319.758 101.537C319.45 101.323 319.079 101.216 318.645 101.216C318.212 101.216 317.838 101.323 317.523 101.537C317.209 101.751 316.95 102.045 316.748 102.419C316.553 102.787 316.407 103.211 316.312 103.692C316.217 104.173 316.17 104.683 316.17 105.224C316.17 105.764 316.217 106.274 316.312 106.755C316.407 107.236 316.553 107.663 316.748 108.037C316.95 108.406 317.206 108.696 317.514 108.91C317.829 109.124 318.2 109.231 318.627 109.231ZM324.685 109.89V109.418L326.02 109.124V102.018L324.702 101.528V101.216L327.81 100.362H328.068V102.187L328.14 102.267V109.124L330.134 109.418V109.89H324.685ZM327.979 103.158L327.97 102.267C328.416 101.656 328.861 101.184 329.306 100.851C329.751 100.519 330.173 100.353 330.571 100.353C330.933 100.353 331.239 100.468 331.488 100.7C331.737 100.932 331.862 101.214 331.862 101.546C331.862 101.861 331.761 102.125 331.559 102.338C331.357 102.546 331.108 102.65 330.811 102.65C330.508 102.65 330.256 102.54 330.054 102.321C329.918 102.184 329.799 102.089 329.698 102.036C329.603 101.976 329.493 101.947 329.369 101.947C329.185 101.947 328.959 102.059 328.692 102.285C328.425 102.511 328.187 102.802 327.979 103.158ZM250.392 133.476C249.893 133.476 249.481 133.357 249.154 133.119C248.833 132.888 248.673 132.567 248.673 132.158C248.673 131.849 248.771 131.603 248.967 131.419C249.169 131.24 249.421 131.151 249.724 131.151C249.973 131.151 250.175 131.217 250.329 131.347C250.49 131.484 250.606 131.701 250.677 131.997C250.73 132.241 250.787 132.398 250.846 132.469C250.905 132.547 251.003 132.585 251.14 132.585C251.336 132.585 251.523 132.475 251.701 132.256C251.879 132.042 252.045 131.707 252.199 131.249L252.912 129.175L249.341 120.724C249.234 120.498 249.083 120.335 248.887 120.234C248.697 120.127 248.409 120.053 248.023 120.012V119.549H252.974V120.012C252.576 120.041 252.283 120.083 252.093 120.136C251.909 120.184 251.805 120.267 251.781 120.386C251.757 120.498 251.787 120.668 251.87 120.893L253.98 126.156H254.069L255.77 121.401C255.954 120.938 255.951 120.599 255.761 120.386C255.571 120.172 255.162 120.047 254.532 120.012V119.549H258.611V120.012C258.172 120.089 257.83 120.178 257.587 120.279C257.343 120.374 257.156 120.51 257.026 120.688C256.895 120.861 256.771 121.104 256.652 121.419L252.956 131.374C252.82 131.754 252.668 132.069 252.502 132.318C252.342 132.573 252.173 132.778 251.995 132.932C251.597 133.295 251.063 133.476 250.392 133.476ZM263.495 129.077C262.528 129.077 261.682 128.863 260.957 128.436C260.239 128.002 259.681 127.42 259.283 126.69C258.886 125.954 258.687 125.132 258.687 124.224C258.687 123.309 258.886 122.487 259.283 121.757C259.681 121.027 260.239 120.448 260.957 120.021C261.682 119.587 262.528 119.371 263.495 119.371C264.463 119.371 265.303 119.587 266.015 120.021C266.734 120.448 267.292 121.027 267.689 121.757C268.093 122.487 268.295 123.309 268.295 124.224C268.295 125.132 268.093 125.954 267.689 126.69C267.292 127.42 266.734 128.002 266.015 128.436C265.303 128.863 264.463 129.077 263.495 129.077ZM263.477 128.231C263.911 128.231 264.282 128.124 264.59 127.91C264.905 127.696 265.163 127.403 265.365 127.029C265.567 126.655 265.715 126.227 265.81 125.746C265.911 125.265 265.962 124.755 265.962 124.215C265.962 123.68 265.914 123.173 265.819 122.692C265.724 122.211 265.576 121.787 265.374 121.419C265.178 121.045 264.923 120.751 264.608 120.537C264.3 120.323 263.929 120.216 263.495 120.216C263.062 120.216 262.688 120.323 262.373 120.537C262.059 120.751 261.8 121.045 261.599 121.419C261.403 121.787 261.257 122.211 261.162 122.692C261.067 123.173 261.02 123.683 261.02 124.224C261.02 124.764 261.067 125.274 261.162 125.755C261.257 126.236 261.403 126.663 261.599 127.037C261.8 127.406 262.056 127.696 262.364 127.91C262.679 128.124 263.05 128.231 263.477 128.231ZM273.337 129.077C272.435 129.077 271.764 128.854 271.325 128.409C270.891 127.958 270.674 127.302 270.674 126.441V120.314L269.357 120.012V119.549H272.794V125.764C272.794 126.554 272.933 127.094 273.212 127.385C273.497 127.67 273.934 127.812 274.521 127.812C274.913 127.812 275.296 127.708 275.67 127.501C276.044 127.287 276.373 126.957 276.658 126.512V127.403C276.219 127.931 275.712 128.343 275.136 128.64C274.56 128.931 273.96 129.077 273.337 129.077ZM276.48 129.077V127.474L276.391 127.411V120.314L275.1 120.012V119.549H278.511V127.465L279.766 127.91V128.204L276.712 129.077H276.48ZM280.787 128.89V128.418L282.123 128.124V121.018L280.805 120.528V120.216L283.913 119.362H284.171V121.187L284.242 121.267V128.124L286.237 128.418V128.89H280.787ZM284.082 122.158L284.073 121.267C284.518 120.656 284.964 120.184 285.409 119.851C285.854 119.519 286.276 119.353 286.673 119.353C287.035 119.353 287.341 119.468 287.59 119.7C287.84 119.932 287.964 120.214 287.964 120.546C287.964 120.861 287.864 121.125 287.662 121.338C287.46 121.546 287.211 121.65 286.914 121.65C286.611 121.65 286.359 121.54 286.157 121.321C286.02 121.184 285.902 121.089 285.801 121.036C285.706 120.976 285.596 120.947 285.471 120.947C285.287 120.947 285.062 121.059 284.794 121.285C284.527 121.511 284.29 121.802 284.082 122.158ZM298.926 128.89V128.418L300.208 128.133V122.71C300.208 121.997 300.063 121.469 299.772 121.125C299.487 120.775 299.036 120.599 298.419 120.599C297.552 120.599 296.839 120.988 296.281 121.766V120.902C296.756 120.427 297.288 120.053 297.875 119.78C298.463 119.507 299.069 119.371 299.692 119.371C301.449 119.371 302.328 120.246 302.328 121.997V128.133L303.655 128.418V128.89H298.926ZM293.031 128.89V128.418L294.358 128.124V121.036L293.031 120.537V120.234L296.13 119.371H296.397V120.92L296.477 121.009V128.124L297.769 128.418V128.89H293.031ZM309.238 129.077C308.342 129.077 307.555 128.881 306.878 128.489C306.201 128.091 305.676 127.539 305.302 126.833C304.934 126.12 304.75 125.298 304.75 124.366C304.75 123.375 304.958 122.505 305.373 121.757C305.789 121.009 306.368 120.424 307.11 120.003C307.858 119.581 308.721 119.371 309.701 119.371C310.936 119.371 311.877 119.721 312.524 120.421C313.177 121.116 313.518 122.137 313.548 123.484L313.423 123.6H306.255V122.986L311.215 122.808C311.262 122.665 311.286 122.434 311.286 122.113C311.286 120.748 310.692 120.065 309.505 120.065C308.704 120.065 308.086 120.389 307.653 121.036C307.225 121.683 307.012 122.6 307.012 123.787C307.012 126.304 307.985 127.563 309.933 127.563C311.227 127.563 312.227 127.1 312.933 126.174L313.316 126.45C313.008 127.281 312.494 127.928 311.776 128.391C311.063 128.848 310.217 129.077 309.238 129.077ZM319.304 128.89V128.418C319.898 128.376 320.242 128.299 320.337 128.186C320.438 128.067 320.364 127.83 320.115 127.474L315.395 120.769C315.229 120.531 315.042 120.365 314.834 120.27C314.626 120.169 314.282 120.083 313.801 120.012V119.549H318.823V120.012C318.307 120.053 317.998 120.139 317.897 120.27C317.796 120.401 317.865 120.632 318.102 120.964L322.822 127.67C322.988 127.901 323.166 128.076 323.356 128.195C323.552 128.308 323.861 128.382 324.282 128.418V128.89H319.304ZM313.498 128.89V128.418C314.11 128.335 314.585 128.201 314.923 128.017C315.262 127.833 315.582 127.551 315.885 127.171L318.414 123.948L319.135 124.25L316.811 127.153C316.502 127.539 316.413 127.83 316.544 128.026C316.68 128.216 317.063 128.346 317.693 128.418V128.89H313.498ZM319.393 124.072L318.654 123.85L320.774 121.285C321.082 120.905 321.177 120.62 321.059 120.43C320.946 120.24 320.601 120.101 320.026 120.012V119.549H323.944V120.012C323.552 120.089 323.237 120.172 323 120.261C322.762 120.35 322.554 120.469 322.376 120.617C322.204 120.76 322.011 120.959 321.798 121.214L319.393 124.072ZM328.128 129.077C327.386 129.077 326.834 128.887 326.472 128.507C326.116 128.121 325.938 127.548 325.938 126.788V120.279H324.753L324.682 119.887L327.647 117.216L328.057 117.269V119.549H330.666L330.479 120.279H328.057V126.61C328.057 127.578 328.413 128.062 329.126 128.062C329.357 128.062 329.58 128.008 329.793 127.901C330.013 127.794 330.203 127.637 330.363 127.429L330.711 127.803C330.426 128.201 330.055 128.513 329.598 128.738C329.146 128.964 328.657 129.077 328.128 129.077ZM341.056 129.077C340.605 129.077 340.162 129.005 339.729 128.863C339.296 128.715 338.898 128.513 338.536 128.257H338.438L337.334 128.89H336.96V115.907L335.588 115.426V115.123L338.812 114.259H339.079V120.59C339.465 120.193 339.892 119.89 340.361 119.682C340.83 119.474 341.335 119.371 341.875 119.371C342.647 119.371 343.324 119.56 343.905 119.94C344.487 120.314 344.941 120.837 345.268 121.508C345.6 122.173 345.766 122.947 345.766 123.832C345.766 124.823 345.559 125.717 345.143 126.512C344.733 127.302 344.172 127.928 343.46 128.391C342.748 128.848 341.946 129.077 341.056 129.077ZM340.913 128.32C341.418 128.32 341.857 128.154 342.231 127.821C342.605 127.489 342.896 127.023 343.104 126.423C343.312 125.823 343.416 125.126 343.416 124.33C343.416 123.137 343.196 122.202 342.757 121.525C342.317 120.849 341.709 120.51 340.931 120.51C340.551 120.51 340.204 120.596 339.889 120.769C339.575 120.935 339.305 121.166 339.079 121.463V126.102C339.079 126.767 339.245 127.305 339.578 127.714C339.916 128.118 340.361 128.32 340.913 128.32ZM347.007 128.89V128.418L348.405 128.124V121.018L347.024 120.537V120.216L350.284 119.371H350.533V128.124L351.895 128.418V128.89H347.007ZM349.455 117.688C349.052 117.688 348.734 117.56 348.503 117.305C348.271 117.049 348.155 116.758 348.155 116.432C348.155 116.076 348.271 115.773 348.503 115.524C348.74 115.268 349.058 115.141 349.455 115.141C349.859 115.141 350.18 115.268 350.417 115.524C350.655 115.773 350.773 116.076 350.773 116.432C350.773 116.758 350.658 117.049 350.426 117.305C350.195 117.56 349.871 117.688 349.455 117.688ZM358.988 120.029C359.095 119.727 359.235 119.421 359.407 119.112C359.579 118.798 359.793 118.533 360.048 118.32C360.309 118.1 360.618 117.99 360.974 117.99C361.283 117.99 361.544 118.076 361.758 118.249C361.977 118.415 362.087 118.643 362.087 118.934C362.087 119.178 362.004 119.391 361.838 119.575C361.677 119.759 361.467 119.851 361.205 119.851C361.027 119.851 360.891 119.813 360.796 119.736C360.701 119.658 360.615 119.581 360.538 119.504C360.46 119.427 360.348 119.388 360.199 119.388C360.021 119.388 359.873 119.489 359.754 119.691C359.635 119.887 359.552 120.113 359.505 120.368L358.988 120.029ZM356.976 125.274C357.391 125.274 357.712 125.132 357.937 124.847C358.169 124.562 358.329 124.209 358.418 123.787C358.513 123.366 358.561 122.956 358.561 122.558C358.561 122.309 358.54 122.039 358.498 121.748C358.457 121.457 358.383 121.178 358.276 120.911C358.175 120.644 358.026 120.427 357.831 120.261C357.635 120.089 357.382 120.003 357.074 120.003C356.747 120.003 356.48 120.095 356.272 120.279C356.07 120.463 355.91 120.7 355.791 120.991C355.679 121.276 355.598 121.576 355.551 121.891C355.509 122.205 355.489 122.493 355.489 122.754C355.489 123.087 355.527 123.449 355.604 123.841C355.682 124.232 355.827 124.571 356.041 124.856C356.254 125.135 356.566 125.274 356.976 125.274ZM356.985 125.933C356.338 125.933 355.863 126.005 355.56 126.147C355.257 126.284 355.106 126.482 355.106 126.744C355.106 126.963 355.257 127.141 355.56 127.278C355.863 127.409 356.45 127.542 357.323 127.679L358.596 127.901C359.641 128.067 360.41 128.349 360.903 128.747C361.395 129.139 361.642 129.664 361.642 130.323C361.642 130.887 361.487 131.371 361.179 131.775C360.87 132.178 360.454 132.508 359.932 132.763C359.416 133.018 358.837 133.205 358.196 133.324C357.56 133.443 356.916 133.502 356.263 133.502C355.777 133.502 355.299 133.458 354.83 133.369C354.361 133.286 353.936 133.152 353.556 132.968C353.176 132.79 352.871 132.555 352.639 132.265C352.414 131.974 352.301 131.62 352.301 131.205C352.301 130.724 352.482 130.291 352.844 129.905C353.212 129.525 353.835 129.16 354.714 128.81L355.328 129.059C354.925 129.237 354.61 129.501 354.384 129.851C354.159 130.202 354.046 130.573 354.046 130.964C354.046 131.38 354.168 131.721 354.411 131.988C354.655 132.262 354.975 132.463 355.373 132.594C355.777 132.725 356.21 132.79 356.673 132.79C357.207 132.79 357.73 132.731 358.24 132.612C358.751 132.493 359.172 132.309 359.505 132.06C359.843 131.81 360.012 131.49 360.012 131.098C360.012 130.884 359.941 130.691 359.799 130.519C359.656 130.347 359.389 130.184 358.997 130.029C358.605 129.881 358.035 129.739 357.287 129.602L355.827 129.326C354.954 129.16 354.316 128.916 353.913 128.596C353.515 128.269 353.316 127.88 353.316 127.429C353.316 127.18 353.39 126.934 353.539 126.69C353.693 126.441 353.96 126.215 354.34 126.013C354.72 125.812 355.251 125.666 355.934 125.577L356.985 125.933ZM356.985 125.933C356.29 125.933 355.661 125.8 355.097 125.533C354.539 125.26 354.097 124.88 353.77 124.393C353.444 123.9 353.28 123.318 353.28 122.647C353.28 122.018 353.441 121.457 353.761 120.964C354.088 120.472 354.53 120.083 355.088 119.798C355.652 119.513 356.287 119.371 356.994 119.371C357.688 119.371 358.32 119.51 358.89 119.789C359.46 120.062 359.914 120.442 360.253 120.929C360.591 121.416 360.76 121.974 360.76 122.603C360.76 123.179 360.603 123.719 360.288 124.224C359.974 124.728 359.531 125.141 358.961 125.461C358.398 125.776 357.739 125.933 356.985 125.933ZM251.122 148.077C250.457 148.077 249.923 147.884 249.519 147.498C249.121 147.106 248.923 146.59 248.923 145.948C248.923 145.402 249.089 144.933 249.421 144.541C249.76 144.144 250.294 143.802 251.024 143.517C251.754 143.227 252.71 142.974 253.891 142.761V141.22C253.891 140.454 253.796 139.926 253.606 139.635C253.422 139.338 253.093 139.19 252.618 139.19C252.143 139.19 251.766 139.306 251.487 139.537C251.208 139.763 251.069 140.071 251.069 140.463C251.069 140.582 251.077 140.701 251.095 140.819C251.113 140.938 251.122 141.051 251.122 141.158C251.122 141.472 251.021 141.734 250.819 141.941C250.623 142.143 250.377 142.244 250.08 142.244C249.795 142.244 249.564 142.152 249.386 141.968C249.207 141.784 249.118 141.544 249.118 141.247C249.118 140.867 249.27 140.481 249.573 140.089C249.881 139.691 250.294 139.347 250.81 139.056C251.606 138.599 252.508 138.371 253.517 138.371C254.075 138.371 254.538 138.451 254.906 138.611C255.275 138.765 255.545 138.988 255.717 139.279C255.824 139.487 255.898 139.754 255.939 140.08C255.987 140.401 256.011 140.911 256.011 141.612V145.476C256.011 146.035 256.058 146.423 256.153 146.643C256.248 146.857 256.42 146.964 256.67 146.964C256.955 146.964 257.231 146.806 257.498 146.492L257.845 146.883C257.524 147.299 257.195 147.602 256.857 147.792C256.518 147.982 256.132 148.077 255.699 148.077C255.188 148.077 254.794 147.952 254.515 147.703C254.236 147.447 254.052 147.064 253.963 146.554H253.909C253.535 147.035 253.108 147.409 252.627 147.676C252.152 147.943 251.65 148.077 251.122 148.077ZM252.253 146.768C252.579 146.768 252.882 146.69 253.161 146.536C253.446 146.376 253.69 146.153 253.891 145.868V143.402C253.167 143.544 252.6 143.701 252.191 143.874C251.781 144.04 251.49 144.248 251.318 144.497C251.152 144.74 251.069 145.052 251.069 145.432C251.069 145.865 251.167 146.198 251.362 146.429C251.564 146.655 251.861 146.768 252.253 146.768ZM262.403 148.077C261.685 148.077 261.037 147.872 260.462 147.462C259.892 147.053 259.438 146.495 259.099 145.788C258.767 145.076 258.601 144.271 258.601 143.375C258.601 142.39 258.799 141.523 259.197 140.775C259.595 140.021 260.147 139.433 260.853 139.012C261.566 138.584 262.385 138.371 263.311 138.371C263.976 138.371 264.629 138.486 265.27 138.718V134.924L263.899 134.426V134.123L267.122 133.259H267.381V146.376L268.663 146.705V146.964L265.609 148.077H265.404V146.732L265.324 146.705C264.956 147.151 264.522 147.492 264.024 147.729C263.525 147.961 262.985 148.077 262.403 148.077ZM263.302 146.866C263.712 146.866 264.089 146.777 264.433 146.598C264.783 146.42 265.062 146.18 265.27 145.877V141.122C265.27 140.481 265.11 139.982 264.789 139.626C264.469 139.264 264.018 139.083 263.436 139.083C262.688 139.083 262.085 139.451 261.628 140.187C261.171 140.917 260.942 141.885 260.942 143.09C260.942 144.254 261.15 145.174 261.566 145.85C261.987 146.527 262.566 146.866 263.302 146.866ZM273.394 148.077L270.019 139.769C269.912 139.495 269.778 139.311 269.618 139.216C269.464 139.116 269.158 139.047 268.701 139.012V138.549H273.741V139.012C273.236 139.041 272.895 139.095 272.717 139.172C272.545 139.243 272.459 139.356 272.459 139.51C272.459 139.629 272.491 139.78 272.557 139.964L274.56 145.352H274.632L276.457 140.347C276.564 140.045 276.617 139.813 276.617 139.653C276.617 139.475 276.534 139.344 276.368 139.261C276.208 139.172 275.875 139.089 275.371 139.012V138.549H279.182V139.012C278.743 139.083 278.407 139.166 278.176 139.261C277.944 139.356 277.769 139.49 277.65 139.662C277.531 139.828 277.413 140.062 277.294 140.365L274.427 148.077H273.394ZM283.707 148.077C282.81 148.077 282.024 147.881 281.347 147.489C280.67 147.091 280.145 146.539 279.771 145.833C279.403 145.12 279.219 144.298 279.219 143.366C279.219 142.375 279.426 141.505 279.842 140.757C280.257 140.009 280.836 139.424 281.578 139.003C282.326 138.581 283.19 138.371 284.17 138.371C285.404 138.371 286.345 138.721 286.992 139.421C287.645 140.116 287.987 141.137 288.016 142.484L287.892 142.6H280.723V141.986L285.683 141.808C285.731 141.665 285.755 141.434 285.755 141.113C285.755 139.748 285.161 139.065 283.974 139.065C283.172 139.065 282.555 139.389 282.121 140.036C281.694 140.683 281.48 141.6 281.48 142.787C281.48 145.304 282.454 146.563 284.401 146.563C285.695 146.563 286.696 146.1 287.402 145.174L287.785 145.45C287.476 146.281 286.963 146.928 286.244 147.391C285.532 147.848 284.686 148.077 283.707 148.077ZM295.083 147.89V147.418L296.365 147.133V141.71C296.365 140.997 296.219 140.469 295.928 140.125C295.644 139.775 295.192 139.599 294.575 139.599C293.708 139.599 292.996 139.988 292.438 140.766V139.902C292.913 139.427 293.444 139.053 294.032 138.78C294.619 138.507 295.225 138.371 295.848 138.371C297.606 138.371 298.484 139.246 298.484 140.997V147.133L299.811 147.418V147.89H295.083ZM289.188 147.89V147.418L290.514 147.124V140.036L289.188 139.537V139.234L292.286 138.371H292.554V139.92L292.634 140.009V147.124L293.925 147.418V147.89H289.188ZM304.006 148.077C303.264 148.077 302.711 147.887 302.349 147.507C301.993 147.121 301.815 146.548 301.815 145.788V139.279H300.631L300.559 138.887L303.525 136.216L303.934 136.269V138.549H306.543L306.356 139.279H303.934V145.61C303.934 146.578 304.291 147.062 305.003 147.062C305.234 147.062 305.457 147.008 305.671 146.901C305.89 146.794 306.08 146.637 306.241 146.429L306.588 146.803C306.303 147.201 305.932 147.513 305.475 147.738C305.024 147.964 304.534 148.077 304.006 148.077ZM311.043 148.077C310.14 148.077 309.47 147.854 309.03 147.409C308.597 146.958 308.38 146.302 308.38 145.441V139.314L307.062 139.012V138.549H310.5V144.764C310.5 145.554 310.639 146.094 310.918 146.385C311.203 146.67 311.639 146.812 312.227 146.812C312.619 146.812 313.002 146.708 313.376 146.501C313.75 146.287 314.079 145.957 314.364 145.512V146.403C313.925 146.931 313.417 147.343 312.842 147.64C312.266 147.931 311.666 148.077 311.043 148.077ZM314.186 148.077V146.474L314.097 146.411V139.314L312.806 139.012V138.549H316.216V146.465L317.472 146.91V147.204L314.418 148.077H314.186ZM318.493 147.89V147.418L319.829 147.124V140.018L318.511 139.528V139.216L321.619 138.362H321.877V140.187L321.948 140.267V147.124L323.943 147.418V147.89H318.493ZM321.788 141.158L321.779 140.267C322.224 139.656 322.669 139.184 323.115 138.851C323.56 138.519 323.981 138.353 324.379 138.353C324.741 138.353 325.047 138.468 325.296 138.7C325.546 138.932 325.67 139.214 325.67 139.546C325.67 139.861 325.569 140.125 325.368 140.338C325.166 140.546 324.916 140.65 324.62 140.65C324.317 140.65 324.064 140.54 323.863 140.321C323.726 140.184 323.607 140.089 323.506 140.036C323.411 139.976 323.302 139.947 323.177 139.947C322.993 139.947 322.767 140.059 322.5 140.285C322.233 140.511 321.996 140.802 321.788 141.158ZM330.891 148.077C329.995 148.077 329.208 147.881 328.531 147.489C327.854 147.091 327.329 146.539 326.955 145.833C326.587 145.12 326.403 144.298 326.403 143.366C326.403 142.375 326.611 141.505 327.026 140.757C327.442 140.009 328.021 139.424 328.763 139.003C329.511 138.581 330.374 138.371 331.354 138.371C332.589 138.371 333.53 138.721 334.177 139.421C334.83 140.116 335.171 141.137 335.201 142.484L335.076 142.6H327.908V141.986L332.868 141.808C332.915 141.665 332.939 141.434 332.939 141.113C332.939 139.748 332.345 139.065 331.158 139.065C330.357 139.065 329.739 139.389 329.306 140.036C328.878 140.683 328.665 141.6 328.665 142.787C328.665 145.304 329.638 146.563 331.586 146.563C332.88 146.563 333.88 146.1 334.586 145.174L334.969 145.45C334.661 146.281 334.147 146.928 333.429 147.391C332.716 147.848 331.87 148.077 330.891 148.077ZM337.539 143.829V139.956H338.358C339.462 139.956 340.293 139.828 340.851 139.573C341.409 139.317 341.688 138.946 341.688 138.46C341.688 138.21 341.617 137.979 341.474 137.765C341.338 137.551 341.1 137.344 340.762 137.142C340.43 136.934 339.973 136.72 339.391 136.501C338.803 136.269 338.352 136.073 338.037 135.913C337.729 135.747 337.515 135.589 337.396 135.441C337.277 135.287 337.218 135.12 337.218 134.942C337.218 134.408 337.568 134.141 338.269 134.141C339.035 134.141 339.732 134.334 340.361 134.72C340.991 135.1 341.492 135.625 341.866 136.296C342.24 136.961 342.427 137.718 342.427 138.566C342.427 139.599 342.127 140.401 341.528 140.971C340.928 141.541 340.07 141.843 338.954 141.879L338.42 141.888V143.829H337.539ZM337.957 148.077C337.553 148.077 337.236 147.949 337.004 147.694C336.779 147.438 336.666 147.136 336.666 146.785C336.666 146.435 336.782 146.138 337.013 145.895C337.245 145.646 337.559 145.521 337.957 145.521C338.355 145.521 338.675 145.646 338.919 145.895C339.162 146.138 339.284 146.435 339.284 146.785C339.284 147.136 339.165 147.438 338.928 147.694C338.696 147.949 338.373 148.077 337.957 148.077Z" fill="white"></path><rect x="248.139" y="166.137" width="69.6723" height="23.5485" rx="2.13713" fill="#191919"></rect><path d="M257.101 181.411V173.882H260.612C262.115 173.882 263.002 174.592 263.002 175.756V175.766C263.002 176.569 262.397 177.253 261.598 177.363V177.462C262.584 177.514 263.346 178.281 263.346 179.236V179.246C263.346 180.561 262.329 181.411 260.717 181.411H257.101ZM260.101 175.234H259.016V176.95H260.028C260.727 176.95 261.134 176.627 261.134 176.1V176.089C261.134 175.557 260.753 175.234 260.101 175.234ZM260.164 178.114H259.016V180.06H260.174C260.967 180.06 261.4 179.71 261.4 179.079V179.069C261.4 178.453 260.957 178.114 260.164 178.114ZM267.223 181.547C265.365 181.547 264.265 180.415 264.265 178.51V178.5C264.265 176.627 265.397 175.469 267.223 175.469C269.06 175.469 270.181 176.616 270.181 178.5V178.51C270.181 180.42 269.086 181.547 267.223 181.547ZM267.223 180.144C267.901 180.144 268.287 179.538 268.287 178.51V178.5C268.287 177.493 267.891 176.872 267.223 176.872C266.555 176.872 266.159 177.493 266.159 178.5V178.51C266.159 179.543 266.545 180.144 267.223 180.144ZM274.006 181.547C272.148 181.547 271.047 180.415 271.047 178.51V178.5C271.047 176.627 272.18 175.469 274.006 175.469C275.842 175.469 276.964 176.616 276.964 178.5V178.51C276.964 180.42 275.868 181.547 274.006 181.547ZM274.006 180.144C274.684 180.144 275.07 179.538 275.07 178.51V178.5C275.07 177.493 274.674 176.872 274.006 176.872C273.338 176.872 272.941 177.493 272.941 178.5V178.51C272.941 179.543 273.328 180.144 274.006 180.144ZM278.169 181.411V173.428H280.016V177.775H280.116L281.759 175.604H283.825L281.744 178.088L283.966 181.411H281.817L280.371 179.189L280.016 179.59V181.411H278.169ZM287.509 181.411V175.604H289.356V176.512H289.455C289.706 175.876 290.29 175.469 291.109 175.469C292.398 175.469 293.071 176.267 293.071 177.66V181.411H291.224V178.072C291.224 177.368 290.937 176.971 290.311 176.971C289.711 176.971 289.356 177.425 289.356 178.093V181.411H287.509ZM297.13 181.547C295.273 181.547 294.172 180.415 294.172 178.51V178.5C294.172 176.627 295.304 175.469 297.13 175.469C298.967 175.469 300.089 176.616 300.089 178.5V178.51C300.089 180.42 298.993 181.547 297.13 181.547ZM297.13 180.144C297.808 180.144 298.195 179.538 298.195 178.51V178.5C298.195 177.493 297.798 176.872 297.13 176.872C296.462 176.872 296.066 177.493 296.066 178.5V178.51C296.066 179.543 296.452 180.144 297.13 180.144ZM302.082 181.411L300.569 175.604H302.436L303.162 179.585H303.261L304.137 175.604H305.896L306.783 179.585H306.882L307.607 175.604H309.433L307.931 181.411H305.943L305.035 177.587H304.936L304.038 181.411H302.082Z" fill="white"></path><rect width="182.368" height="242.92" transform="translate(40 21.5)" fill="#F1ECE3"></rect><rect width="135.351" height="172.395" transform="translate(58.5217 56.5885)" fill="#F4D39F"></rect><g clip-path="url(#clip1_10_8347)"><rect x="51.3979" y="32.898" width="45.592" height="17.097" fill="#F1F9FE"></rect><path d="M60.445 42.7931C60.1106 42.7931 59.8466 42.6943 59.6528 42.4967C59.459 42.2992 59.3622 42.0218 59.3622 41.6647V39.1913H58.57V38.7582H59.8409V41.6647C59.8409 42.1282 60.0422 42.36 60.445 42.36C60.6235 42.36 60.7698 42.303 60.8838 42.189C61.0016 42.075 61.0776 41.9002 61.1117 41.6647L61.5449 41.7502C61.4955 42.0921 61.3739 42.3524 61.1801 42.5309C60.9902 42.7057 60.7451 42.7931 60.445 42.7931ZM63.5915 42.7931C63.3065 42.7931 63.0577 42.7266 62.8449 42.5936C62.6322 42.4568 62.4669 42.2764 62.3491 42.0522C62.2351 41.8243 62.1781 41.5773 62.1781 41.3113C62.1781 41.0454 62.2351 40.8003 62.3491 40.5762C62.4669 40.3482 62.6322 40.1677 62.8449 40.0348C63.0577 39.898 63.3065 39.8296 63.5915 39.8296C63.8764 39.8296 64.1253 39.898 64.3381 40.0348C64.5508 40.1677 64.7142 40.3482 64.8282 40.5762C64.9459 40.8003 65.0048 41.0454 65.0048 41.3113C65.0048 41.5773 64.9459 41.8243 64.8282 42.0522C64.7142 42.2764 64.5508 42.4568 64.3381 42.5936C64.1253 42.7266 63.8764 42.7931 63.5915 42.7931ZM63.5915 42.36C63.7814 42.36 63.9448 42.3125 64.0816 42.2175C64.2222 42.1225 64.3286 41.9952 64.4007 41.8357C64.4767 41.6723 64.5147 41.4975 64.5147 41.3113C64.5147 41.1252 64.4767 40.9523 64.4007 40.7927C64.3286 40.6294 64.2222 40.5002 64.0816 40.4052C63.9448 40.3102 63.7814 40.2627 63.5915 40.2627C63.4015 40.2627 63.2362 40.3102 63.0957 40.4052C62.9589 40.5002 62.8525 40.6294 62.7765 40.7927C62.7043 40.9523 62.6682 41.1252 62.6682 41.3113C62.6682 41.4975 62.7043 41.6723 62.7765 41.8357C62.8525 41.9952 62.9589 42.1225 63.0957 42.2175C63.2362 42.3125 63.4015 42.36 63.5915 42.36ZM67.1597 43.9557C66.7418 43.9557 66.4151 43.874 66.1795 43.7106C65.9477 43.5511 65.8319 43.3174 65.8319 43.0097C65.8319 42.8805 65.8585 42.7627 65.9116 42.6563C65.9648 42.5499 66.037 42.4625 66.1282 42.3942C65.9914 42.2878 65.923 42.1415 65.923 41.9553C65.923 41.8262 65.9591 41.7103 66.0313 41.6077C66.1073 41.5051 66.2118 41.4291 66.3448 41.3797C66.227 41.2202 66.1681 41.0245 66.1681 40.7927C66.1681 40.599 66.2118 40.4299 66.2992 40.2855C66.3866 40.1374 66.5062 40.0253 66.6582 39.9493C66.814 39.8695 66.9888 39.8296 67.1825 39.8296C67.3877 39.8296 67.5758 39.879 67.7467 39.9778L68.3451 39.67L68.5617 40.0633L68.0773 40.314C68.1571 40.4508 68.1969 40.6104 68.1969 40.7927C68.1969 41.0853 68.102 41.3189 67.912 41.4937C67.722 41.6685 67.4789 41.7559 67.1825 41.7559C66.985 41.7559 66.8083 41.716 66.6525 41.6362C66.4777 41.7046 66.3904 41.8034 66.3904 41.9325C66.3904 42.0123 66.4265 42.0731 66.4986 42.1149C66.5708 42.1529 66.6696 42.1719 66.795 42.1719H67.5416C67.8493 42.1719 68.0868 42.2403 68.2539 42.3771C68.4211 42.51 68.5047 42.7057 68.5047 42.9641C68.5047 43.2984 68.3736 43.5473 68.1115 43.7106C67.8493 43.874 67.5321 43.9557 67.1597 43.9557ZM67.1825 41.3455C67.3383 41.3455 67.4675 41.2981 67.5701 41.2031C67.6764 41.1043 67.7296 40.9675 67.7296 40.7927C67.7296 40.618 67.6764 40.4831 67.5701 40.3881C67.4675 40.2893 67.3383 40.2399 67.1825 40.2399C67.0268 40.2399 66.8957 40.2893 66.7893 40.3881C66.6867 40.4869 66.6354 40.6218 66.6354 40.7927C66.6354 40.9637 66.6867 41.0986 66.7893 41.1974C66.8957 41.2962 67.0268 41.3455 67.1825 41.3455ZM67.1597 43.534C67.4295 43.534 67.6384 43.4865 67.7866 43.3915C67.9386 43.3003 68.0146 43.173 68.0146 43.0097C68.0146 42.8577 67.9728 42.7494 67.8892 42.6848C67.8094 42.6164 67.6897 42.5822 67.5302 42.5822H66.852C66.7342 42.5822 66.6354 42.5746 66.5556 42.5594C66.3923 42.643 66.3106 42.7874 66.3106 42.9926C66.3106 43.1597 66.3866 43.2908 66.5385 43.3858C66.6943 43.4846 66.9014 43.534 67.1597 43.534ZM70.6596 42.7931C70.3746 42.7931 70.1258 42.7266 69.913 42.5936C69.7003 42.4568 69.535 42.2764 69.4172 42.0522C69.3032 41.8243 69.2462 41.5773 69.2462 41.3113C69.2462 41.0454 69.3032 40.8003 69.4172 40.5762C69.535 40.3482 69.7003 40.1677 69.913 40.0348C70.1258 39.898 70.3746 39.8296 70.6596 39.8296C70.9445 39.8296 71.1934 39.898 71.4062 40.0348C71.6189 40.1677 71.7823 40.3482 71.8963 40.5762C72.0141 40.8003 72.0729 41.0454 72.0729 41.3113C72.0729 41.5773 72.0141 41.8243 71.8963 42.0522C71.7823 42.2764 71.6189 42.4568 71.4062 42.5936C71.1934 42.7266 70.9445 42.7931 70.6596 42.7931ZM70.6596 42.36C70.8496 42.36 71.0129 42.3125 71.1497 42.2175C71.2903 42.1225 71.3967 41.9952 71.4688 41.8357C71.5448 41.6723 71.5828 41.4975 71.5828 41.3113C71.5828 41.1252 71.5448 40.9523 71.4688 40.7927C71.3967 40.6294 71.2903 40.5002 71.1497 40.4052C71.0129 40.3102 70.8496 40.2627 70.6596 40.2627C70.4696 40.2627 70.3043 40.3102 70.1638 40.4052C70.027 40.5002 69.9206 40.6294 69.8446 40.7927C69.7724 40.9523 69.7363 41.1252 69.7363 41.3113C69.7363 41.4975 69.7724 41.6723 69.8446 41.8357C69.9206 41.9952 70.027 42.1225 70.1638 42.2175C70.3043 42.3125 70.4696 42.36 70.6596 42.36ZM77.437 42.7931C77.1825 42.7931 76.9697 42.719 76.7988 42.5708C76.6316 42.4189 76.548 42.2023 76.548 41.9211C76.548 41.6096 76.662 41.3759 76.8899 41.2202C77.1217 41.0606 77.4408 40.9808 77.8474 40.9808H78.4287V40.8554C78.4287 40.6465 78.366 40.4964 78.2406 40.4052C78.119 40.3102 77.9613 40.2627 77.7676 40.2627C77.6042 40.2627 77.4617 40.3083 77.3402 40.3995C77.2186 40.4907 77.135 40.6085 77.0894 40.7528L76.6677 40.6389C76.7323 40.3919 76.8652 40.1962 77.0666 40.0519C77.268 39.9037 77.5016 39.8296 77.7676 39.8296C78.1209 39.8296 78.3983 39.9189 78.5996 40.0975C78.8048 40.276 78.9074 40.5553 78.9074 40.9352V42.7475H78.5199L78.4515 42.3429C78.3603 42.4758 78.2216 42.5841 78.0354 42.6677C77.8493 42.7513 77.6498 42.7931 77.437 42.7931ZM77.5111 42.36C77.6479 42.36 77.7866 42.3296 77.9272 42.2688C78.0677 42.208 78.1855 42.113 78.2805 41.9838C78.3793 41.8509 78.4287 41.6837 78.4287 41.4823V41.3911H77.8018C77.5586 41.3911 77.3706 41.4386 77.2376 41.5336C77.1046 41.6286 77.0381 41.7578 77.0381 41.9211C77.0381 42.0579 77.0799 42.1662 77.1635 42.246C77.2509 42.322 77.3668 42.36 77.5111 42.36ZM80.0194 39.8752H80.4981V40.4052C80.6121 40.2266 80.7583 40.0861 80.9369 39.9835C81.1193 39.8809 81.3263 39.8296 81.5581 39.8296C81.843 39.8296 82.0672 39.9132 82.2306 40.0804C82.3977 40.2437 82.4889 40.4793 82.5041 40.787H82.0254C81.9836 40.4375 81.7993 40.2627 81.4726 40.2627C81.2978 40.2627 81.1364 40.3178 80.9882 40.428C80.84 40.5344 80.7203 40.6978 80.6292 40.9181C80.5418 41.1347 80.4981 41.3987 80.4981 41.7103V42.7475H80.0194V39.8752ZM84.8015 42.7931C84.5279 42.7931 84.2867 42.7285 84.0777 42.5993C83.8726 42.4701 83.713 42.2935 83.599 42.0693C83.485 41.8414 83.428 41.5887 83.428 41.3113C83.428 41.0378 83.4831 40.7889 83.5933 40.5648C83.7035 40.3406 83.8631 40.162 84.072 40.0291C84.281 39.8961 84.5241 39.8296 84.8015 39.8296C85.0864 39.8296 85.3315 39.8923 85.5367 40.0177C85.7418 40.1393 85.8976 40.3064 86.004 40.5192C86.1104 40.7281 86.1636 40.9599 86.1636 41.2145V41.4139H83.9181C83.9333 41.6989 84.0207 41.9287 84.1803 42.1035C84.3399 42.2745 84.5469 42.36 84.8015 42.36C85.2118 42.36 85.5196 42.17 85.7247 41.7901L86.1066 41.9895C85.9584 42.2783 85.7741 42.4853 85.5538 42.6107C85.3372 42.7323 85.0864 42.7931 84.8015 42.7931ZM85.6563 40.9808C85.6145 40.7528 85.5196 40.5762 85.3714 40.4508C85.2232 40.3254 85.0332 40.2627 84.8015 40.2627C84.5773 40.2627 84.3912 40.3273 84.243 40.4565C84.0986 40.5819 84.0017 40.7566 83.9523 40.9808H85.6563ZM88.0392 42.7931C87.7846 42.7931 87.5719 42.719 87.4009 42.5708C87.2337 42.4189 87.1501 42.2023 87.1501 41.9211C87.1501 41.6096 87.2641 41.3759 87.4921 41.2202C87.7238 41.0606 88.043 40.9808 88.4495 40.9808H89.0308V40.8554C89.0308 40.6465 88.9681 40.4964 88.8428 40.4052C88.7212 40.3102 88.5635 40.2627 88.3697 40.2627C88.2064 40.2627 88.0639 40.3083 87.9423 40.3995C87.8207 40.4907 87.7371 40.6085 87.6916 40.7528L87.2698 40.6389C87.3344 40.3919 87.4674 40.1962 87.6688 40.0519C87.8701 39.9037 88.1038 39.8296 88.3697 39.8296C88.7231 39.8296 89.0004 39.9189 89.2018 40.0975C89.407 40.276 89.5095 40.5553 89.5095 40.9352V42.7475H89.122L89.0536 42.3429C88.9624 42.4758 88.8238 42.5841 88.6376 42.6677C88.4514 42.7513 88.252 42.7931 88.0392 42.7931ZM88.1133 42.36C88.2501 42.36 88.3887 42.3296 88.5293 42.2688C88.6699 42.208 88.7877 42.113 88.8826 41.9838C88.9814 41.8509 89.0308 41.6837 89.0308 41.4823V41.3911H88.4039C88.1608 41.3911 87.9727 41.4386 87.8397 41.5336C87.7068 41.6286 87.6403 41.7578 87.6403 41.9211C87.6403 42.0579 87.6821 42.1662 87.7656 42.246C87.853 42.322 87.9689 42.36 88.1133 42.36Z" fill="#2B5791"></path></g><rect x="51.7541" y="33.2542" width="44.8797" height="16.3846" stroke="#E7F4FD" stroke-width="0.712376" stroke-dasharray="0.71 0.71"></rect></g><rect x="316" y="53.5" width="169" height="40" rx="8" fill="#F7F7F6"></rect><rect x="315.5" y="53" width="170" height="41" rx="8.5" stroke="#191919" stroke-opacity="0.08"></rect><path d="M332.24 78.628C331.621 78.628 331.051 78.4947 330.528 78.228C330.016 77.9507 329.595 77.5773 329.264 77.108C328.933 76.6387 328.72 76.1267 328.624 75.572L329.776 74.852C330.171 76.5053 330.997 77.332 332.256 77.332C332.8 77.332 333.243 77.172 333.584 76.852C333.925 76.5213 334.096 76.0467 334.096 75.428C334.096 75.0227 333.989 74.676 333.776 74.388C333.563 74.1 333.296 73.86 332.976 73.668C332.656 73.476 332.203 73.2413 331.616 72.964C330.891 72.612 330.315 72.2013 329.888 71.732C329.472 71.252 329.264 70.644 329.264 69.908C329.264 69.3853 329.387 68.916 329.632 68.5C329.877 68.084 330.213 67.7587 330.64 67.524C331.067 67.2893 331.547 67.172 332.08 67.172C332.816 67.172 333.413 67.332 333.872 67.652C334.331 67.9613 334.688 68.4093 334.944 68.996L333.808 69.716C333.467 68.884 332.891 68.468 332.08 68.468C331.643 68.468 331.291 68.6013 331.024 68.868C330.757 69.1347 330.624 69.4547 330.624 69.828C330.624 70.2013 330.725 70.5213 330.928 70.788C331.131 71.0547 331.381 71.2787 331.68 71.46C331.989 71.6413 332.405 71.8493 332.928 72.084C333.749 72.4573 334.384 72.8947 334.832 73.396C335.28 73.8867 335.504 74.5427 335.504 75.364C335.504 76.0147 335.36 76.5853 335.072 77.076C334.795 77.5667 334.405 77.9507 333.904 78.228C333.413 78.4947 332.859 78.628 332.24 78.628ZM340.635 78.628C339.877 78.628 339.221 78.4413 338.667 78.068C338.112 77.6947 337.685 77.1933 337.387 76.564C337.099 75.924 336.955 75.2253 336.955 74.468C336.955 73.7107 337.099 73.0173 337.387 72.388C337.685 71.748 338.112 71.2413 338.667 70.868C339.221 70.4947 339.877 70.308 340.635 70.308C341.371 70.308 342.011 70.4787 342.555 70.82C343.099 71.1613 343.515 71.62 343.803 72.196C344.091 72.772 344.235 73.412 344.235 74.116V74.676H338.331C338.341 75.4867 338.549 76.1533 338.955 76.676C339.371 77.188 339.941 77.444 340.667 77.444C341.221 77.444 341.675 77.3213 342.027 77.076C342.379 76.8307 342.693 76.4307 342.971 75.876L344.091 76.356C343.707 77.1453 343.237 77.7213 342.683 78.084C342.139 78.4467 341.456 78.628 340.635 78.628ZM342.891 73.54C342.795 72.9107 342.555 72.4147 342.171 72.052C341.787 71.6787 341.275 71.492 340.635 71.492C340.048 71.492 339.557 71.684 339.163 72.068C338.768 72.452 338.512 72.9427 338.395 73.54H342.891ZM346.169 67.172H347.497V78.5H346.169V67.172ZM353.119 78.628C352.362 78.628 351.706 78.4413 351.151 78.068C350.596 77.6947 350.17 77.1933 349.871 76.564C349.583 75.924 349.439 75.2253 349.439 74.468C349.439 73.7107 349.583 73.0173 349.871 72.388C350.17 71.748 350.596 71.2413 351.151 70.868C351.706 70.4947 352.362 70.308 353.119 70.308C353.855 70.308 354.495 70.4787 355.039 70.82C355.583 71.1613 355.999 71.62 356.287 72.196C356.575 72.772 356.719 73.412 356.719 74.116V74.676H350.815C350.826 75.4867 351.034 76.1533 351.439 76.676C351.855 77.188 352.426 77.444 353.151 77.444C353.706 77.444 354.159 77.3213 354.511 77.076C354.863 76.8307 355.178 76.4307 355.455 75.876L356.575 76.356C356.191 77.1453 355.722 77.7213 355.167 78.084C354.623 78.4467 353.94 78.628 353.119 78.628ZM355.375 73.54C355.279 72.9107 355.039 72.4147 354.655 72.052C354.271 71.6787 353.759 71.492 353.119 71.492C352.532 71.492 352.042 71.684 351.647 72.068C351.252 72.452 350.996 72.9427 350.879 73.54H355.375ZM361.885 78.628C361.096 78.628 360.424 78.436 359.869 78.052C359.314 77.668 358.893 77.1613 358.605 76.532C358.328 75.9027 358.189 75.2147 358.189 74.468C358.189 73.7213 358.328 73.0333 358.605 72.404C358.893 71.7747 359.314 71.268 359.869 70.884C360.424 70.5 361.096 70.308 361.885 70.308C363.57 70.308 364.696 71.06 365.261 72.564L364.077 73.028C363.661 72.004 362.93 71.492 361.885 71.492C361.128 71.492 360.552 71.7693 360.157 72.324C359.762 72.8787 359.565 73.5933 359.565 74.468C359.565 75.332 359.762 76.0467 360.157 76.612C360.552 77.1667 361.128 77.444 361.885 77.444C362.418 77.444 362.861 77.316 363.213 77.06C363.565 76.804 363.853 76.42 364.077 75.908L365.261 76.372C364.973 77.1187 364.541 77.684 363.965 78.068C363.4 78.4413 362.706 78.628 361.885 78.628ZM369.778 78.628C369.053 78.628 368.482 78.4147 368.066 77.988C367.65 77.5507 367.442 76.9 367.442 76.036V71.62H366.082V70.436H367.442V68.02L368.77 67.172V70.436H370.93V71.62H368.77V76.132C368.77 77.0067 369.144 77.444 369.89 77.444C370.253 77.444 370.562 77.3693 370.818 77.22L371.154 78.34C370.77 78.532 370.312 78.628 369.778 78.628ZM378.811 78.628C378.086 78.628 377.488 78.4253 377.019 78.02C376.55 77.604 376.315 76.9907 376.315 76.18C376.315 75.3267 376.63 74.676 377.259 74.228C377.899 73.7693 378.774 73.54 379.883 73.54H381.291V73.188C381.291 72.6013 381.131 72.1747 380.811 71.908C380.502 71.6307 380.091 71.492 379.579 71.492C378.694 71.492 378.107 71.9293 377.819 72.804L376.635 72.532C376.742 71.86 377.067 71.3213 377.611 70.916C378.166 70.5107 378.822 70.308 379.579 70.308C380.486 70.308 381.216 70.5747 381.771 71.108C382.326 71.6307 382.603 72.372 382.603 73.332V78.5H381.563L381.323 77.332C380.768 78.196 379.931 78.628 378.811 78.628ZM379.051 77.444C379.414 77.444 379.766 77.3587 380.107 77.188C380.448 77.0067 380.731 76.7293 380.955 76.356C381.179 75.972 381.291 75.4973 381.291 74.932V74.676H379.931C379.184 74.676 378.624 74.804 378.251 75.06C377.878 75.316 377.691 75.684 377.691 76.164C377.691 76.5693 377.808 76.884 378.043 77.108C378.288 77.332 378.624 77.444 379.051 77.444ZM389.017 71.62H387.817V70.436H389.017V69.956C389.017 69.0173 389.241 68.3187 389.689 67.86C390.147 67.4013 390.787 67.172 391.609 67.172C392.046 67.172 392.425 67.252 392.745 67.412L392.457 68.548C392.179 68.42 391.891 68.356 391.593 68.356C391.187 68.356 390.873 68.4787 390.649 68.724C390.435 68.9587 390.329 69.316 390.329 69.796V70.436H392.201V71.62H390.329V78.5H389.017V71.62ZM396.952 78.628C396.173 78.628 395.485 78.4413 394.888 78.068C394.301 77.684 393.848 77.172 393.528 76.532C393.219 75.892 393.064 75.204 393.064 74.468C393.064 73.732 393.219 73.044 393.528 72.404C393.848 71.764 394.301 71.2573 394.888 70.884C395.485 70.5 396.173 70.308 396.952 70.308C397.731 70.308 398.413 70.5 399 70.884C399.587 71.2573 400.035 71.764 400.344 72.404C400.664 73.044 400.824 73.732 400.824 74.468C400.824 75.204 400.664 75.892 400.344 76.532C400.035 77.172 399.587 77.684 399 78.068C398.413 78.4413 397.731 78.628 396.952 78.628ZM396.952 77.444C397.475 77.444 397.923 77.3053 398.296 77.028C398.68 76.7507 398.968 76.388 399.16 75.94C399.352 75.4813 399.448 74.9907 399.448 74.468C399.448 73.9453 399.352 73.46 399.16 73.012C398.968 72.5533 398.68 72.1853 398.296 71.908C397.923 71.6307 397.475 71.492 396.952 71.492C396.429 71.492 395.976 71.6307 395.592 71.908C395.219 72.1853 394.931 72.5533 394.728 73.012C394.536 73.46 394.44 73.9453 394.44 74.468C394.44 74.9907 394.536 75.4813 394.728 75.94C394.931 76.388 395.219 76.7507 395.592 77.028C395.976 77.3053 396.429 77.444 396.952 77.444ZM402.763 70.436H404.091V71.988C404.379 71.476 404.757 71.0707 405.227 70.772C405.707 70.4627 406.219 70.308 406.763 70.308C407.52 70.308 408.123 70.532 408.571 70.98C409.019 71.428 409.243 72.0627 409.243 72.884V78.5H407.931V73.172C407.931 72.6173 407.803 72.2013 407.547 71.924C407.301 71.636 406.933 71.492 406.443 71.492C406.005 71.492 405.605 71.636 405.243 71.924C404.891 72.212 404.608 72.628 404.395 73.172C404.192 73.7053 404.091 74.3347 404.091 75.06V78.5H402.763V70.436ZM414.185 78.628C413.459 78.628 412.889 78.4147 412.473 77.988C412.057 77.5507 411.849 76.9 411.849 76.036V71.62H410.489V70.436H411.849V68.02L413.177 67.172V70.436H415.337V71.62H413.177V76.132C413.177 77.0067 413.55 77.444 414.297 77.444C414.659 77.444 414.969 77.3693 415.225 77.22L415.561 78.34C415.177 78.532 414.718 78.628 414.185 78.628Z" fill="#262627"></path><g filter="url(#filter0_b_10_8347)"><rect y="243.5" width="169" height="40" rx="8" fill="#AE4E09"></rect><rect x="0.25" y="243.75" width="168.5" height="39.5" rx="7.75" stroke="white" stroke-opacity="0.15" stroke-width="0.5"></rect><path d="M54.6723 261.569C54.7331 261.751 54.991 261.751 55.0517 261.569L55.862 259.138L58.2928 258.328C58.4751 258.267 58.4751 258.009 58.2928 257.948L55.862 257.138L55.0517 254.707C54.991 254.525 54.7331 254.525 54.6723 254.707L53.862 257.138L51.4312 257.948C51.2489 258.009 51.2489 258.267 51.4312 258.328L53.862 259.138L54.6723 261.569ZM49.362 262.638L47.3172 258.139C47.1396 257.749 46.5845 257.749 46.4068 258.139L44.362 262.638L39.8634 264.683C39.4726 264.86 39.4726 265.415 39.8634 265.593L44.362 267.638L46.4068 272.137C46.5845 272.527 47.1396 272.527 47.3172 272.137L49.362 267.638L53.8606 265.593C54.2514 265.415 54.2514 264.86 53.8606 264.683L49.362 262.638Z" fill="#F9F9F7"></path><path d="M72.2697 268.628C71.3524 268.628 70.5097 268.404 69.7417 267.956C68.9737 267.497 68.3604 266.836 67.9017 265.972C67.4537 265.108 67.2297 264.084 67.2297 262.9C67.2297 261.716 67.4537 260.692 67.9017 259.828C68.3604 258.964 68.9737 258.308 69.7417 257.86C70.5097 257.401 71.3524 257.172 72.2697 257.172C73.1764 257.172 74.0137 257.401 74.7817 257.86C75.5497 258.308 76.1577 258.964 76.6057 259.828C77.0644 260.692 77.2937 261.716 77.2937 262.9C77.2937 264.084 77.0644 265.108 76.6057 265.972C76.1577 266.836 75.5497 267.497 74.7817 267.956C74.0137 268.404 73.1764 268.628 72.2697 268.628ZM72.2697 267.332C72.9417 267.332 73.5497 267.167 74.0937 266.836C74.6377 266.505 75.0697 266.009 75.3897 265.348C75.7097 264.676 75.8697 263.86 75.8697 262.9C75.8697 261.94 75.7097 261.129 75.3897 260.468C75.0697 259.796 74.6377 259.295 74.0937 258.964C73.5497 258.633 72.9417 258.468 72.2697 258.468C71.5977 258.468 70.9897 258.633 70.4457 258.964C69.9017 259.295 69.4697 259.796 69.1497 260.468C68.8297 261.129 68.6697 261.94 68.6697 262.9C68.6697 263.86 68.8297 264.676 69.1497 265.348C69.4697 266.009 69.9017 266.505 70.4457 266.836C70.9897 267.167 71.5977 267.332 72.2697 267.332ZM79.2859 260.436H80.6139V261.476C80.8059 261.167 81.1153 260.895 81.5419 260.66C81.9793 260.425 82.4539 260.308 82.9659 260.308C83.7339 260.308 84.3899 260.489 84.9339 260.852C85.4779 261.204 85.8886 261.695 86.1659 262.324C86.4433 262.953 86.5819 263.668 86.5819 264.468C86.5819 265.268 86.4433 265.983 86.1659 266.612C85.8886 267.241 85.4779 267.737 84.9339 268.1C84.3899 268.452 83.7339 268.628 82.9659 268.628C82.5073 268.628 82.0593 268.527 81.6219 268.324C81.1846 268.111 80.8486 267.833 80.6139 267.492V271.764H79.2859V260.436ZM82.8379 267.444C83.5739 267.444 84.1499 267.172 84.5659 266.628C84.9926 266.073 85.2059 265.353 85.2059 264.468C85.2059 263.583 84.9926 262.868 84.5659 262.324C84.1499 261.769 83.5739 261.492 82.8379 261.492C82.1019 261.492 81.5259 261.769 81.1099 262.324C80.6939 262.868 80.4859 263.583 80.4859 264.468C80.4859 265.353 80.6939 266.073 81.1099 266.628C81.5366 267.172 82.1126 267.444 82.8379 267.444ZM91.1298 268.628C90.4045 268.628 89.8338 268.415 89.4178 267.988C89.0018 267.551 88.7938 266.9 88.7938 266.036V261.62H87.4338V260.436H88.7938V258.02L90.1218 257.172V260.436H92.2818V261.62H90.1218V266.132C90.1218 267.007 90.4951 267.444 91.2418 267.444C91.6045 267.444 91.9138 267.369 92.1698 267.22L92.5058 268.34C92.1218 268.532 91.6631 268.628 91.1298 268.628ZM94.7388 259.076C94.4721 259.076 94.2428 258.985 94.0508 258.804C93.8695 258.612 93.7788 258.383 93.7788 258.116C93.7788 257.839 93.8695 257.609 94.0508 257.428C94.2428 257.247 94.4721 257.156 94.7388 257.156C95.0161 257.156 95.2455 257.247 95.4268 257.428C95.6188 257.609 95.7148 257.839 95.7148 258.116C95.7148 258.393 95.6188 258.623 95.4268 258.804C95.2455 258.985 95.0161 259.076 94.7388 259.076ZM94.0828 260.436H95.4108V268.5H94.0828V260.436ZM97.8016 260.436H99.1296V261.988C99.4069 261.465 99.7536 261.055 100.17 260.756C100.586 260.457 101.066 260.308 101.61 260.308C102.186 260.308 102.66 260.457 103.034 260.756C103.418 261.044 103.679 261.476 103.818 262.052C104.095 261.529 104.463 261.108 104.922 260.788C105.38 260.468 105.871 260.308 106.394 260.308C107.94 260.308 108.714 261.172 108.714 262.9V268.5H107.402V263.108C107.402 262.553 107.3 262.148 107.098 261.892C106.895 261.625 106.564 261.492 106.106 261.492C105.7 261.492 105.332 261.636 105.002 261.924C104.671 262.212 104.404 262.628 104.202 263.172C104.01 263.716 103.914 264.356 103.914 265.092V268.5H102.602V263.108C102.602 262.553 102.5 262.148 102.298 261.892C102.106 261.625 101.775 261.492 101.306 261.492C100.9 261.492 100.532 261.636 100.202 261.924C99.8709 262.212 99.6096 262.633 99.4176 263.188C99.2256 263.743 99.1296 264.399 99.1296 265.156V268.5H97.8016V260.436ZM111.754 259.076C111.488 259.076 111.258 258.985 111.066 258.804C110.885 258.612 110.794 258.383 110.794 258.116C110.794 257.839 110.885 257.609 111.066 257.428C111.258 257.247 111.488 257.156 111.754 257.156C112.032 257.156 112.261 257.247 112.442 257.428C112.634 257.609 112.73 257.839 112.73 258.116C112.73 258.393 112.634 258.623 112.442 258.804C112.261 258.985 112.032 259.076 111.754 259.076ZM111.098 260.436H112.426V268.5H111.098V260.436ZM114.177 267.924L118.081 261.62H114.385V260.436H119.777V261.06L115.905 267.316H119.969V268.5H114.177V267.924ZM124.736 268.628C123.979 268.628 123.323 268.441 122.768 268.068C122.214 267.695 121.787 267.193 121.488 266.564C121.2 265.924 121.056 265.225 121.056 264.468C121.056 263.711 121.2 263.017 121.488 262.388C121.787 261.748 122.214 261.241 122.768 260.868C123.323 260.495 123.979 260.308 124.736 260.308C125.472 260.308 126.112 260.479 126.656 260.82C127.2 261.161 127.616 261.62 127.904 262.196C128.192 262.772 128.336 263.412 128.336 264.116V264.676H122.432C122.443 265.487 122.651 266.153 123.056 266.676C123.472 267.188 124.043 267.444 124.768 267.444C125.323 267.444 125.776 267.321 126.128 267.076C126.48 266.831 126.795 266.431 127.072 265.876L128.192 266.356C127.808 267.145 127.339 267.721 126.784 268.084C126.24 268.447 125.558 268.628 124.736 268.628ZM126.992 263.54C126.896 262.911 126.656 262.415 126.272 262.052C125.888 261.679 125.376 261.492 124.736 261.492C124.15 261.492 123.659 261.684 123.264 262.068C122.87 262.452 122.614 262.943 122.496 263.54H126.992Z" fill="#F9F9F7"></path></g><rect x="293" y="1.5" width="144" height="40" rx="8" fill="#F7F7F6"></rect><rect x="292.5" y="1" width="145" height="41" rx="8.5" stroke="#191919" stroke-opacity="0.08"></rect><path d="M317 31.1C313.03 31.1 309.8 28.0579 309.8 24.3187C309.8 19.1 317 11.9 317 11.9C317 11.9 324.2 19.1 324.2 24.3187C324.2 28.058 320.97 31.1 317 31.1Z" fill="#AE4E09" stroke="#7F7F7F" stroke-width="1.5" stroke-linecap="round" stroke-linejoin="round"></path><path d="M349 31.1C345.03 31.1 341.8 28.0579 341.8 24.3187C341.8 19.1 349 11.9 349 11.9C349 11.9 356.2 19.1 356.2 24.3187C356.2 28.058 352.97 31.1 349 31.1Z" fill="#B5DDFC" stroke="#7F7F7F" stroke-width="1.5" stroke-linecap="round" stroke-linejoin="round"></path><path d="M381 31.1C377.03 31.1 373.8 28.0579 373.8 24.3187C373.8 19.1 381 11.9 381 11.9C381 11.9 388.2 19.1 388.2 24.3187C388.2 28.058 384.97 31.1 381 31.1Z" stroke="#7F7F7F" stroke-width="1.5" stroke-linecap="round" stroke-linejoin="round"></path><path d="M413 31.1C409.03 31.1 405.8 28.0579 405.8 24.3187C405.8 19.1 413 11.9 413 11.9C413 11.9 420.2 19.1 420.2 24.3187C420.2 28.058 416.97 31.1 413 31.1Z" fill="#191919" stroke="#7F7F7F" stroke-width="1.5" stroke-linecap="round" stroke-linejoin="round"></path><defs><filter id="filter0_b_10_8347" x="-30" y="213.5" width="229" height="100" filterUnits="userSpaceOnUse" color-interpolation-filters="sRGB"><feFlood flood-opacity="0" result="BackgroundImageFix"></feFlood><feGaussianBlur in="BackgroundImageFix" stdDeviation="15"></feGaussianBlur><feComposite in2="SourceAlpha" operator="in" result="effect1_backgroundBlur_10_8347"></feComposite><feBlend mode="normal" in="SourceGraphic" in2="effect1_backgroundBlur_10_8347" result="shape"></feBlend></filter><clipPath id="clip0_10_8347"><rect width="360" height="242" fill="white" transform="translate(40 21.5)"></rect></clipPath><clipPath id="clip1_10_8347"><rect x="51.3979" y="32.898" width="45.592" height="17.097" fill="white"></rect></clipPath></defs></svg>